<svg xmlns="http://www.w3.org/2000/svg" width="1200" height="580" viewBox="0 0 1200 580" role="img" aria-labelledby="title desc">
  <title id="title">Governed campaign audience funnel</title>
  <desc id="desc">Audience counts after each lifecycle, consent, suppression, contact-cap and campaign-conflict rule.</desc>
  <rect width="1200" height="580" rx="20" fill="#ffffff"/>
  <text x="48" y="48" fill="#17212b" font-family="Inter, ui-sans-serif, -apple-system, BlinkMacSystemFont, Segoe UI, sans-serif" font-size="27" font-weight="750">Governed audience waterfall</text>
  <text x="48" y="76" fill="#647383" font-family="Inter, ui-sans-serif, -apple-system, BlinkMacSystemFont, Segoe UI, sans-serif" font-size="14">Every exclusion is applied before assignment; percentages use all 12,000 members as the denominator.</text>
  <g font-family="Inter, ui-sans-serif, -apple-system, BlinkMacSystemFont, Segoe UI, sans-serif">
    <text x="48" y="126" fill="#17212b" font-size="14" font-weight="650">All members</text>
    <rect x="238" y="106" width="760" height="30" rx="8" fill="#eef3f6"/>
    <rect x="238" y="106" width="760.0" height="30" rx="8" fill="#087ec7" opacity="0.72"/>
    <text x="1018" y="126" fill="#17212b" font-size="14" font-weight="700">12,000</text>
    <text x="1101" y="126" fill="#647383" font-size="13">100.0%</text>
    <text x="48" y="180" fill="#17212b" font-size="14" font-weight="650">Seller history</text>
    <rect x="238" y="160" width="760" height="30" rx="8" fill="#eef3f6"/>
    <rect x="238" y="160" width="480.1" height="30" rx="8" fill="#087ec7" opacity="0.76"/>
    <text x="1018" y="180" fill="#17212b" font-size="14" font-weight="700">7,580</text>
    <text x="1101" y="180" fill="#647383" font-size="13">63.2%</text>
    <text x="48" y="234" fill="#17212b" font-size="14" font-weight="650">Lapsed 90+ days</text>
    <rect x="238" y="214" width="760" height="30" rx="8" fill="#eef3f6"/>
    <rect x="238" y="214" width="306.1" height="30" rx="8" fill="#087ec7" opacity="0.79"/>
    <text x="1018" y="234" fill="#17212b" font-size="14" font-weight="700">4,833</text>
    <text x="1101" y="234" fill="#647383" font-size="13">40.3%</text>
    <text x="48" y="288" fill="#17212b" font-size="14" font-weight="650">Recently active</text>
    <rect x="238" y="268" width="760" height="30" rx="8" fill="#eef3f6"/>
    <rect x="238" y="268" width="286.1" height="30" rx="8" fill="#087ec7" opacity="0.82"/>
    <text x="1018" y="288" fill="#17212b" font-size="14" font-weight="700">4,518</text>
    <text x="1101" y="288" fill="#647383" font-size="13">37.6%</text>
    <text x="48" y="342" fill="#17212b" font-size="14" font-weight="650">Marketing consent</text>
    <rect x="238" y="322" width="760" height="30" rx="8" fill="#eef3f6"/>
    <rect x="238" y="322" width="279.7" height="30" rx="8" fill="#087ec7" opacity="0.86"/>
    <text x="1018" y="342" fill="#17212b" font-size="14" font-weight="700">4,417</text>
    <text x="1101" y="342" fill="#647383" font-size="13">36.8%</text>
    <text x="48" y="396" fill="#17212b" font-size="14" font-weight="650">Not suppressed</text>
    <rect x="238" y="376" width="760" height="30" rx="8" fill="#eef3f6"/>
    <rect x="238" y="376" width="274.6" height="30" rx="8" fill="#087ec7" opacity="0.90"/>
    <text x="1018" y="396" fill="#17212b" font-size="14" font-weight="700">4,336</text>
    <text x="1101" y="396" fill="#647383" font-size="13">36.1%</text>
    <text x="48" y="450" fill="#17212b" font-size="14" font-weight="650">Within contact cap</text>
    <rect x="238" y="430" width="760" height="30" rx="8" fill="#eef3f6"/>
    <rect x="238" y="430" width="270.4" height="30" rx="8" fill="#087ec7" opacity="0.93"/>
    <text x="1018" y="450" fill="#17212b" font-size="14" font-weight="700">4,269</text>
    <text x="1101" y="450" fill="#647383" font-size="13">35.6%</text>
    <text x="48" y="504" fill="#17212b" font-size="14" font-weight="650">No campaign conflict</text>
    <rect x="238" y="484" width="760" height="30" rx="8" fill="#eef3f6"/>
    <rect x="238" y="484" width="256.6" height="30" rx="8" fill="#14845c" opacity="0.96"/>
    <text x="1018" y="504" fill="#17212b" font-size="14" font-weight="700">4,051</text>
    <text x="1101" y="504" fill="#647383" font-size="13">33.8%</text></g>
  <rect x="48" y="538" width="1104" height="1" fill="#dce5eb"/>
  <text x="48" y="562" fill="#14845c" font-family="Inter, ui-sans-serif, -apple-system, BlinkMacSystemFont, Segoe UI, sans-serif" font-size="14" font-weight="700">Final activation audience: 4,051 pseudonymous member IDs</text>
  <text x="1128" y="562" text-anchor="end" fill="#647383" font-family="Inter, ui-sans-serif, -apple-system, BlinkMacSystemFont, Segoe UI, sans-serif" font-size="13">Consent snapshot · suppression · contact pressure · campaign priority</text>
</svg>
